<svg width="56" height="38" viewBox="0 0 56 38" fill="none" xmlns="http://www.w3.org/2000/svg">
<path d="M35.6294 14.1554C37.592 14.1555 39.4424 15.9237 39.4536 19.1681C39.4535 22.7144 37.6252 24.3253 35.6177 24.3253C34.631 24.3252 34.037 23.9111 33.6333 23.6202L33.6216 26.7872L30.8179 27.38V14.3351H33.2856L33.4312 15.0284C33.8237 14.6704 34.5303 14.1554 35.6294 14.1554ZM11.7075 14.1554C12.6383 14.1554 13.558 14.3009 14.4888 14.67V17.299C13.6365 16.8403 12.5598 16.5832 11.7075 16.5831C11.1131 16.5831 10.7544 16.7513 10.7544 17.1876C10.7546 18.4406 15.0274 17.8478 15.0386 21.1818C15.0385 23.1842 13.4345 24.3369 11.1021 24.337C10.1375 24.337 9.08258 24.1469 8.03955 23.6993V21.0363C8.98164 21.5509 10.1712 21.9308 11.1021 21.9308C11.7297 21.9307 12.178 21.7634 12.1782 21.2491C12.1782 19.9178 7.9165 20.4093 7.9165 17.3214C7.9167 15.3414 9.43096 14.1554 11.7075 14.1554ZM18.3237 14.3458H20.4546V16.7286H18.3237V20.7003C18.3237 22.3554 20.0947 21.8421 20.4546 21.6964V23.9669C20.0845 24.1682 19.412 24.337 18.4927 24.337C16.8328 24.337 15.5874 23.1169 15.5874 21.4611L15.5991 12.5001L18.3354 11.9181L18.3237 14.3458ZM44.2427 14.1554C46.9006 14.1554 48.2914 16.4154 48.2915 19.2794C48.2915 19.5479 48.269 20.1301 48.269 20.2755H42.7847C42.9081 21.5956 43.8726 21.9757 44.9604 21.9757C46.0708 21.9757 46.9459 21.7409 47.7085 21.3605V23.5978C46.9459 24.0229 45.9365 24.3253 44.6021 24.3253C41.8655 24.3253 39.9585 22.6245 39.9585 19.257C39.9586 16.4154 41.5736 14.1554 44.2427 14.1554ZM23.9429 15.174C24.6045 13.9657 25.9169 14.2116 26.2759 14.3458V16.9191C25.9281 16.796 24.8067 16.6397 24.145 17.5011V24.1349H21.3413V14.3458H23.7642L23.9429 15.174ZM29.7749 24.1349H26.9595V14.3458H29.7749V24.1349ZM34.9565 16.6398C34.3173 16.6398 33.9132 16.8632 33.6216 17.1876L33.6333 21.338C33.9025 21.6289 34.2949 21.8644 34.9565 21.8644C35.9882 21.8642 36.6831 20.7452 36.6831 19.2462C36.6831 17.7807 35.977 16.6399 34.9565 16.6398ZM44.2319 16.4269C43.5254 16.4269 42.7515 16.9527 42.7515 18.2169H45.645C45.645 16.953 44.9159 16.4271 44.2319 16.4269ZM29.7749 12.8917L26.9604 13.4952V11.213L29.7749 10.6202V12.8917Z" fill="#6461FC"/>
</svg>
